<svg t="1729158388485" class="icon" viewBox="0 0 1024 1024" version="1.1" xmlns="http://www.w3.org/2000/svg" p-id="7519" width="200" height="200"><path d="M512 706.56c101.79584 0 184.32 68.77184 184.32 153.6 0 84.82816-82.52416 153.6-184.32 153.6s-184.32-68.77184-184.32-153.6c0-84.82816 82.52416-153.6 184.32-153.6z m0 133.12c-45.24032 0-81.92 38.97344-81.92 87.04s36.67968 87.04 81.92 87.04 81.92-38.97344 81.92-87.04-36.67968-87.04-81.92-87.04z" fill="#040105" p-id="7520"></path><path d="M358.4 102.4h307.2c169.66656 0 307.2 137.53344 307.2 307.2v81.92c0 214.90688-174.21312 389.12-389.12 389.12H440.32C225.41312 880.64 51.2 706.42688 51.2 491.52v-81.92c0-169.66656 137.53344-307.2 307.2-307.2z" fill="#E5811C" p-id="7521"></path><path d="M512 491.52c135.7312 0 245.76 116.91008 245.76 261.12 0 33.46432-5.92896 65.46432-16.72192 94.8736A387.79904 387.79904 0 0 1 583.68 880.64H440.32a387.76832 387.76832 0 0 1-157.35808-33.1264A274.85184 274.85184 0 0 1 266.24 752.64C266.24 608.43008 376.2688 491.52 512 491.52z" fill="#F8D3A4" p-id="7522"></path><path d="M972.8 409.27232v81.92c0 129.82272-63.5904 244.80768-161.31072 315.4944C771.6352 748.25728 747.52 671.9488 747.52 588.47232c0-152.7808 80.77312-281.51808 190.8736-320.6144A305.93024 305.93024 0 0 1 972.8 409.26208z m-701.44 179.2c0 82.28864-23.43936 157.61408-62.26944 215.7056C113.29536 733.2864 51.2 619.49952 51.2 491.19232v-81.92c0-50.37056 12.12416-97.8944 33.59744-139.84768C192.68608 310.33344 271.36 437.68832 271.36 588.47232z" fill="#040105" p-id="7523"></path><path d="M809.09312 566.9888c13.59872 3.90144 35.34848-30.39232 48.59904-76.5952 13.25056-46.21312 12.97408-86.8352-0.6144-90.7264-13.58848-3.90144-35.34848 30.40256-48.59904 76.60544-13.25056 46.21312-12.97408 86.8352 0.6144 90.7264z m-597.13536 0c-13.58848 3.90144-35.34848-30.39232-48.59904-76.5952-13.25056-46.21312-12.97408-86.8352 0.6144-90.7264 13.59872-3.90144 35.34848 30.40256 48.59904 76.60544 13.25056 46.21312 12.97408 86.8352-0.6144 90.7264z" fill="#A88E97" p-id="7524"></path><path d="M655.36 371.07712C749.17888 118.70208 840.3456 2.58048 928.8704 22.71232 902.51264 54.4768 811.34592 170.5984 655.36 371.07712z m-279.4496 0C282.112 118.70208 190.9248 2.58048 102.4 22.71232c26.35776 31.76448 117.53472 147.88608 273.5104 348.3648z" fill="#150104" p-id="7525"></path></svg>